<?xml version="1.0" standalone="no"?>
<!DOCTYPE svg PUBLIC "-//W3C//DTD SVG 20010904//EN"
 "http://www.w3.org/TR/2001/REC-SVG-20010904/DTD/svg10.dtd">
<svg version="1.0" xmlns="http://www.w3.org/2000/svg"
 width="32.000000pt" height="32.000000pt" viewBox="0 0 32.000000 32.000000"
 preserveAspectRatio="xMidYMid meet">

<g transform="translate(0.000000,32.000000) scale(0.100000,-0.100000)"
fill="#000000" stroke="none">
<path d="M52 298 c-8 -8 -12 -54 -12 -140 0 -153 -5 -148 139 -148 140 0 130
19 -11 22 -93 2 -113 6 -113 18 0 12 20 16 113 18 l112 3 0 119 0 120 -108 0
c-71 0 -112 -4 -120 -12z m218 -113 l0 -105 -110 0 -110 0 0 98 c0 54 3 102 7
105 3 4 53 7 110 7 l103 0 0 -105z"/>
<path d="M100 201 c-15 -29 -12 -36 15 -36 27 0 27 0 19 33 -8 27 -20 28 -34
3z"/>
<path d="M203 211 c17 -6 17 -8 3 -20 -22 -19 -20 -41 4 -41 11 0 20 5 20 10
0 6 -5 10 -11 10 -7 0 -5 10 5 25 16 25 16 25 -11 24 -22 0 -24 -2 -10 -8z"/>
<path d="M158 193 c7 -3 16 -2 19 1 4 3 -2 6 -13 5 -11 0 -14 -3 -6 -6z"/>
</g>
</svg>
